<svg width="57" height="58" viewBox="0 0 57 58" fill="none" xmlns="http://www.w3.org/2000/svg">
<ellipse cx="28.6417" cy="28.9088" rx="28.0552" ry="28.2846" fill="#C3C5C2" fill-opacity="0.35"/>
<path d="M12.9995 43.4003C15.1071 43.4003 16.8292 41.662 16.8292 39.5345V14.6274H39.1905V39.5345C39.1905 41.662 37.4684 43.4003 35.3608 43.4003" fill="#4C4C4C"/>
<path d="M31.5312 39.5343V36.6025H9.16992V39.5343C9.16992 41.6618 10.892 43.4001 12.9996 43.4001H35.3609C33.2533 43.4001 31.5312 41.6618 31.5312 39.5343Z" fill="#605D5D"/>
<path d="M23.6919 19.5828H20.8389V20.8281H23.6919V19.5828Z" fill="white"/>
<path d="M34.6669 19.5828H25.9023V20.8281H34.6669V19.5828Z" fill="white"/>
<path d="M23.6919 23.9934H20.8389V25.2388H23.6919V23.9934Z" fill="white"/>
<path d="M34.6669 23.9934H25.9023V25.2388H34.6669V23.9934Z" fill="white"/>
<path d="M23.6919 28.4041H20.8389V29.6494H23.6919V28.4041Z" fill="white"/>
<path d="M34.6669 28.4041H25.9023V29.6494H34.6669V28.4041Z" fill="white"/>
<path d="M23.6919 32.8147H20.8389V34.0601H23.6919V32.8147Z" fill="white"/>
<path d="M34.6669 32.8147H25.9023V34.0601H34.6669V32.8147Z" fill="white"/>
<path opacity="0.1" d="M39.1906 33.0222V18.2077C38.8822 18.1558 38.548 18.1299 38.2139 18.1299C34.1272 18.1299 30.8115 21.4768 30.8115 25.602C30.8115 29.7272 34.1272 33.0741 38.2139 33.0741C38.548 33.1001 38.8822 33.0741 39.1906 33.0222Z" fill="#0C1E5B"/>
<path d="M40.8106 31.5955C44.8989 31.5955 48.2131 28.2501 48.2131 24.1233C48.2131 19.9965 44.8989 16.6511 40.8106 16.6511C36.7224 16.6511 33.4082 19.9965 33.4082 24.1233C33.4082 28.2501 36.7224 31.5955 40.8106 31.5955Z" fill="#11B04C"/>
<path d="M42.1209 24.6422V19.998H39.4992V24.6422H37.7515L40.8101 28.2485L43.8687 24.6422H42.1209Z" fill="white"/>
</svg>
