<svg width="57" height="58" viewBox="0 0 57 58" fill="none" xmlns="http://www.w3.org/2000/svg">
<ellipse cx="28.6417" cy="28.9088" rx="28.0552" ry="28.2846" fill="#C3C5C2" fill-opacity="0.35"/>
<path d="M23.0312 13.0002C23.7937 13.0002 24.525 13.3058 25.0642 13.8496C25.6033 14.3935 25.9062 15.1311 25.9062 15.9002C25.9062 16.6694 25.6033 17.407 25.0642 17.9509C24.525 18.4947 23.7937 18.8002 23.0312 18.8002C22.2688 18.8002 21.5375 18.4947 20.9983 17.9509C20.4592 17.407 20.1562 16.6694 20.1562 15.9002C20.1562 15.1311 20.4592 14.3935 20.9983 13.8496C21.5375 13.3058 22.2688 13.0002 23.0312 13.0002ZM20.875 20.2502H25.1875C25.95 20.2502 26.6813 20.5558 27.2204 21.0996C27.7596 21.6435 28.0625 22.3811 28.0625 23.1502V31.1252H25.9062V42.0002H20.1562V31.1252H18V23.1502C18 22.3811 18.3029 21.6435 18.8421 21.0996C19.3812 20.5558 20.1125 20.2502 20.875 20.2502ZM35.9688 13.0002C36.7312 13.0002 37.4625 13.3058 38.0017 13.8496C38.5408 14.3935 38.8438 15.1311 38.8438 15.9002C38.8438 16.6694 38.5408 17.407 38.0017 17.9509C37.4625 18.4947 36.7312 18.8002 35.9688 18.8002C35.2063 18.8002 34.475 18.4947 33.9358 17.9509C33.3967 17.407 33.0938 16.6694 33.0938 15.9002C33.0938 15.1311 33.3967 14.3935 33.9358 13.8496C34.475 13.3058 35.2063 13.0002 35.9688 13.0002ZM33.8125 20.2502H38.125C38.8875 20.2502 39.6188 20.5558 40.1579 21.0996C40.6971 21.6435 41 22.3811 41 23.1502V31.1252H38.8438V42.0002H33.0938V31.1252H30.9375V23.1502C30.9375 22.3811 31.2404 21.6435 31.7796 21.0996C32.3187 20.5558 33.05 20.2502 33.8125 20.2502Z" fill="#4C4C4C"/>
</svg>
