<svg width="11" height="11" viewBox="0 0 11 11" fill="none" xmlns="http://www.w3.org/2000/svg">
<rect x="10.6904" y="10.845" width="10.6483" height="10.7353" rx="5.32415" transform="rotate(-180 10.6904 10.845)" fill="#2ED6A3" fill-opacity="0.15"/>
<g clip-path="url(#clip0_85_4002)">
<path d="M4.04892 5.38475C4.10765 5.44395 4.18729 5.4772 4.27034 5.4772C4.35338 5.4772 4.43303 5.44395 4.49176 5.38475L5.0533 4.81862L5.0533 6.89812C5.0533 6.98186 5.0863 7.06217 5.14503 7.12139C5.20376 7.1806 5.28342 7.21387 5.36649 7.21387C5.44955 7.21387 5.52921 7.1806 5.58794 7.12139C5.64668 7.06217 5.67967 6.98186 5.67967 6.89812L5.67967 4.81862L6.24121 5.38475C6.30028 5.44227 6.37939 5.47409 6.46151 5.47337C6.54362 5.47266 6.62218 5.43945 6.68024 5.38091C6.73831 5.32236 6.77125 5.24317 6.77196 5.16038C6.77267 5.0776 6.74111 4.99784 6.68406 4.93829L5.58791 3.83318C5.52918 3.77399 5.44953 3.74073 5.36649 3.74073C5.28344 3.74073 5.2038 3.77399 5.14506 3.83318L4.04892 4.93829C3.9902 4.9975 3.95722 5.0778 3.95722 5.16152C3.95722 5.24524 3.9902 5.32554 4.04892 5.38475Z" fill="#00A389"/>
</g>
<defs>
<clipPath id="clip0_85_4002">
<rect width="3.75823" height="3.78895" fill="white" transform="translate(7.24561 7.37183) rotate(-180)"/>
</clipPath>
</defs>
</svg>
