<svg width="57" height="58" viewBox="0 0 57 58" fill="none" xmlns="http://www.w3.org/2000/svg">
<ellipse cx="28.6417" cy="28.9088" rx="28.0552" ry="28.2846" fill="#C3C5C2" fill-opacity="0.35"/>
<path d="M29 32.5266C22.37 32.5266 17 35.3529 17 38.8424V42.0002H41V38.8424C41 35.3529 35.63 32.5266 29 32.5266ZM23 23.0529C23 24.7279 23.6321 26.3344 24.7574 27.5188C25.8826 28.7033 27.4087 29.3687 29 29.3687C30.5913 29.3687 32.1174 28.7033 33.2426 27.5188C34.3679 26.3344 35 24.7279 35 23.0529M28.25 12.0002C27.8 12.0002 27.5 12.3318 27.5 12.7897V17.5266H26V13.5792C26 13.5792 22.625 14.9371 22.625 19.5002C22.625 19.5002 21.5 19.7213 21.5 21.4739H36.5C36.425 19.7213 35.375 19.5002 35.375 19.5002C35.375 14.9371 32 13.5792 32 13.5792V17.5266H30.5V12.7897C30.5 12.3318 30.215 12.0002 29.75 12.0002H28.25Z" fill="#4C4C4C"/>
</svg>
