<svg width="36" height="37" viewBox="0 0 36 37" fill="none" xmlns="http://www.w3.org/2000/svg">
<rect width="35.5249" height="36.3381" rx="17.7625" fill="white"/>
<path d="M17.1433 28.8379L17.1433 28.8379L17.1476 28.8378C17.6505 28.8262 18.1331 28.6371 18.5101 28.304C18.887 27.9709 19.134 27.5152 19.2074 27.0175L19.2918 26.4446H18.7127H15.4983H14.9191L15.0036 27.0176C15.0791 27.5288 15.3376 27.9952 15.7312 28.33C16.1248 28.6649 16.6266 28.8453 17.1433 28.8379Z" fill="#B4171C" stroke="#B4171C"/>
<path d="M26.0033 24.3961C25.414 23.8708 24.8981 23.2685 24.4694 22.6056C24.0015 21.6905 23.721 20.6911 23.6444 19.6661V16.6472C23.642 16.2805 23.6093 15.9147 23.5467 15.5534C23.0657 15.4572 22.6034 15.2839 22.1778 15.04C22.34 15.5624 22.4224 16.1063 22.4222 16.6534V19.6722C22.4971 20.9226 22.8411 22.142 23.4306 23.2472C23.8525 23.9158 24.3531 24.5313 24.9217 25.0806H9.27111C9.83969 24.5313 10.3403 23.9158 10.7622 23.2472C11.3517 22.142 11.6957 20.9226 11.7706 19.6722V16.6472C11.7673 15.94 11.9037 15.2391 12.1717 14.5846C12.4398 13.9301 12.8343 13.3349 13.3327 12.8331C13.8311 12.3313 14.4236 11.9327 15.0762 11.6602C15.7289 11.3877 16.4289 11.2466 17.1361 11.245C18.1712 11.2458 19.183 11.552 20.045 12.125C19.95 11.7761 19.8966 11.4171 19.8861 11.0556V10.6706C19.248 10.3567 18.5625 10.1502 17.8572 10.0595V9.28947C17.8572 9.07309 17.7713 8.86558 17.6183 8.71258C17.4653 8.55959 17.2578 8.47363 17.0414 8.47363C16.825 8.47363 16.6175 8.55959 16.4645 8.71258C16.3115 8.86558 16.2256 9.07309 16.2256 9.28947V10.09C14.6463 10.3128 13.2009 11.0994 12.1563 12.3046C11.1117 13.5099 10.5384 15.0523 10.5422 16.6472V19.6661C10.4657 20.6911 10.1852 21.6905 9.71722 22.6056C9.29609 23.267 8.78845 23.8692 8.20778 24.3961C8.14259 24.4534 8.09035 24.5239 8.05452 24.6029C8.0187 24.6819 8.00011 24.7677 8 24.8545V25.6856C8 25.8477 8.06438 26.0031 8.17899 26.1177C8.2936 26.2323 8.44903 26.2967 8.61111 26.2967H25.6C25.7621 26.2967 25.9175 26.2323 26.0321 26.1177C26.1467 26.0031 26.2111 25.8477 26.2111 25.6856V24.8545C26.211 24.7677 26.1924 24.6819 26.1566 24.6029C26.1208 24.5239 26.0685 24.4534 26.0033 24.3961Z" fill="#B4171C" stroke="#B4171C"/>
<path d="M24.4694 14.1111C26.1569 14.1111 27.5249 12.7431 27.5249 11.0556C27.5249 9.36802 26.1569 8 24.4694 8C22.7818 8 21.4138 9.36802 21.4138 11.0556C21.4138 12.7431 22.7818 14.1111 24.4694 14.1111Z" fill="#B4171C"/>
</svg>
